<svg xmlns="http://www.w3.org/2000/svg" xmlns:xlink="http://www.w3.org/1999/xlink" width="1080" zoomAndPan="magnify" viewBox="0 0 810 1012.49997" height="1350" preserveAspectRatio="xMidYMid meet" version="1.0"><defs><filter x="0%" y="0%" width="100%" height="100%" id="b38c180562"><feColorMatrix values="0 0 0 0 1 0 0 0 0 1 0 0 0 0 1 0 0 0 1 0" color-interpolation-filters="sRGB"/></filter><g/><clipPath id="ec24ad55f9"><rect x="0" width="363" y="0" height="479"/></clipPath><clipPath id="72f1cf5b7b"><rect x="0" width="278" y="0" height="417"/></clipPath><clipPath id="569c185ad1"><rect x="0" width="394" y="0" height="380"/></clipPath><clipPath id="f2d1975bf2"><path d="M 294 331 L 317 331 L 317 358 L 294 358 Z M 294 331 " clip-rule="nonzero"/></clipPath><clipPath id="20c88d4efb"><path d="M 292.445312 334.015625 L 313.648438 329.902344 L 318.519531 355 L 297.316406 359.113281 Z M 292.445312 334.015625 " clip-rule="nonzero"/></clipPath><clipPath id="cb2bae62f3"><path d="M 303.046875 331.960938 C 297.191406 333.09375 293.535156 339.632812 294.878906 346.558594 C 296.222656 353.484375 302.058594 358.175781 307.914062 357.039062 C 313.769531 355.902344 317.425781 349.367188 316.082031 342.441406 C 314.738281 335.515625 308.902344 330.824219 303.046875 331.960938 Z M 303.046875 331.960938 " clip-rule="nonzero"/></clipPath><clipPath id="58f382c48e"><path d="M 0 0 L 23 0 L 23 27 L 0 27 Z M 0 0 " clip-rule="nonzero"/></clipPath><clipPath id="27b6adc5b3"><path d="M -1.554688 3.015625 L 19.648438 -1.097656 L 24.519531 24 L 3.316406 28.113281 Z M -1.554688 3.015625 " clip-rule="nonzero"/></clipPath><clipPath id="53f8e7bab6"><path d="M 9.046875 0.960938 C 3.191406 2.09375 -0.464844 8.632812 0.878906 15.558594 C 2.222656 22.484375 8.058594 27.175781 13.914062 26.039062 C 19.769531 24.902344 23.425781 18.367188 22.082031 11.441406 C 20.738281 4.515625 14.902344 -0.175781 9.046875 0.960938 Z M 9.046875 0.960938 " clip-rule="nonzero"/></clipPath><clipPath id="2696df3074"><rect x="0" width="23" y="0" height="27"/></clipPath><clipPath id="9773643e53"><path d="M 286 344 L 316 344 L 316 376 L 286 376 Z M 286 344 " clip-rule="nonzero"/></clipPath><clipPath id="28cf087f66"><path d="M 284.300781 347.492188 L 312.175781 342.082031 L 318.136719 372.789062 L 290.257812 378.199219 Z M 284.300781 347.492188 " clip-rule="nonzero"/></clipPath><clipPath id="9c0eb23ba9"><path d="M 298.238281 344.785156 C 290.539062 346.28125 285.628906 354.34375 287.269531 362.800781 C 288.910156 371.253906 296.480469 376.898438 304.179688 375.40625 C 311.878906 373.910156 316.789062 365.84375 315.148438 357.390625 C 313.507812 348.933594 305.9375 343.292969 298.238281 344.785156 Z M 298.238281 344.785156 " clip-rule="nonzero"/></clipPath><clipPath id="e70bd2bff8"><path d="M 0 0 L 30 0 L 30 32 L 0 32 Z M 0 0 " clip-rule="nonzero"/></clipPath><clipPath id="1e0429f14b"><path d="M -1.699219 3.492188 L 26.175781 -1.917969 L 32.136719 28.789062 L 4.257812 34.199219 Z M -1.699219 3.492188 " clip-rule="nonzero"/></clipPath><clipPath id="1a33750c7b"><path d="M 12.238281 0.785156 C 4.539062 2.28125 -0.371094 10.34375 1.269531 18.800781 C 2.910156 27.253906 10.480469 32.898438 18.179688 31.40625 C 25.878906 29.910156 30.789062 21.84375 29.148438 13.390625 C 27.507812 4.933594 19.9375 -0.707031 12.238281 0.785156 Z M 12.238281 0.785156 " clip-rule="nonzero"/></clipPath><clipPath id="4c391c4840"><rect x="0" width="30" y="0" height="32"/></clipPath><clipPath id="48b5a9256e"><path d="M 312 316 L 324 316 L 324 329 L 312 329 Z M 312 316 " clip-rule="nonzero"/></clipPath><clipPath id="d65fb4d1de"><path d="M 311.230469 317.429688 L 322.585938 315.226562 L 325.011719 327.734375 L 313.65625 329.9375 Z M 311.230469 317.429688 " clip-rule="nonzero"/></clipPath><clipPath id="40c3b74410"><path d="M 316.90625 316.328125 C 313.773438 316.9375 311.773438 320.222656 312.441406 323.664062 C 313.109375 327.109375 316.191406 329.40625 319.328125 328.800781 C 322.464844 328.191406 324.464844 324.90625 323.796875 321.460938 C 323.128906 318.019531 320.042969 315.71875 316.90625 316.328125 Z M 316.90625 316.328125 " clip-rule="nonzero"/></clipPath><clipPath id="6895908249"><path d="M 0 0 L 12 0 L 12 13 L 0 13 Z M 0 0 " clip-rule="nonzero"/></clipPath><clipPath id="b509e30990"><path d="M -0.769531 1.429688 L 10.585938 -0.773438 L 13.011719 11.734375 L 1.65625 13.9375 Z M -0.769531 1.429688 " clip-rule="nonzero"/></clipPath><clipPath id="b5b30e9c0b"><path d="M 4.90625 0.328125 C 1.773438 0.9375 -0.226562 4.222656 0.441406 7.664062 C 1.109375 11.109375 4.191406 13.40625 7.328125 12.800781 C 10.464844 12.191406 12.464844 8.90625 11.796875 5.460938 C 11.128906 2.019531 8.042969 -0.28125 4.90625 0.328125 Z M 4.90625 0.328125 " clip-rule="nonzero"/></clipPath><clipPath id="d0b7181cba"><rect x="0" width="12" y="0" height="13"/></clipPath><clipPath id="66ef3a404d"><path d="M 294 364 L 321 364 L 321 392 L 294 392 Z M 294 364 " clip-rule="nonzero"/></clipPath><clipPath id="01bddc7313"><path d="M 303.015625 360.871094 L 324.183594 384.183594 L 312.527344 394.765625 L 291.359375 371.453125 Z M 303.015625 360.871094 " clip-rule="nonzero"/></clipPath><clipPath id="0aafd45ec6"><path d="M 318.890625 378.355469 C 321.8125 381.574219 321.574219 386.550781 318.355469 389.472656 C 315.136719 392.398438 310.15625 392.15625 307.234375 388.9375 L 296.652344 377.28125 C 293.730469 374.0625 293.96875 369.085938 297.1875 366.164062 C 300.40625 363.242188 305.386719 363.480469 308.308594 366.699219 Z M 318.890625 378.355469 " clip-rule="nonzero"/></clipPath><clipPath id="2855a5b50d"><path d="M 0 0 L 27 0 L 27 28 L 0 28 Z M 0 0 " clip-rule="nonzero"/></clipPath><clipPath id="97bb3ee8f5"><path d="M 9.015625 -3.128906 L 30.183594 20.183594 L 18.527344 30.765625 L -2.640625 7.453125 Z M 9.015625 -3.128906 " clip-rule="nonzero"/></clipPath><clipPath id="f2a3133be7"><path d="M 24.890625 14.355469 C 27.8125 17.574219 27.574219 22.550781 24.355469 25.472656 C 21.136719 28.398438 16.15625 28.15625 13.234375 24.9375 L 2.652344 13.28125 C -0.269531 10.0625 -0.03125 5.085938 3.1875 2.164062 C 6.40625 -0.757812 11.386719 -0.519531 14.308594 2.699219 Z M 24.890625 14.355469 " clip-rule="nonzero"/></clipPath><clipPath id="515e8d33ed"><rect x="0" width="27" y="0" height="28"/></clipPath><clipPath id="719a63023a"><path d="M 308 378 L 331 378 L 331 403 L 308 403 Z M 308 378 " clip-rule="nonzero"/></clipPath><clipPath id="a3de9fa9e2"><path d="M 335.171875 398.148438 L 325.757812 406.417969 L 308.121094 386.339844 L 317.535156 378.070312 Z M 335.171875 398.148438 " clip-rule="nonzero"/></clipPath><clipPath id="278d099b17"><path d="M 330.464844 402.285156 L 308.152344 386.378906 L 317.566406 378.105469 Z M 330.464844 402.285156 " clip-rule="nonzero"/></clipPath><clipPath id="0057b32ca6"><path d="M 0 0.0546875 L 22.515625 0.0546875 L 22.515625 24.519531 L 0 24.519531 Z M 0 0.0546875 " clip-rule="nonzero"/></clipPath><clipPath id="8f86fc9406"><path d="M 27.171875 20.148438 L 17.757812 28.417969 L 0.121094 8.339844 L 9.535156 0.0703125 Z M 27.171875 20.148438 " clip-rule="nonzero"/></clipPath><clipPath id="d0fdb30db1"><path d="M 22.464844 24.285156 L 0.152344 8.378906 L 9.566406 0.105469 Z M 22.464844 24.285156 " clip-rule="nonzero"/></clipPath><clipPath id="6786cc89bb"><rect x="0" width="23" y="0" height="25"/></clipPath><clipPath id="4030594cdd"><path d="M 454.203125 528.898438 L 465.265625 528.898438 L 465.265625 540.230469 L 454.203125 540.230469 Z M 454.203125 528.898438 " clip-rule="nonzero"/></clipPath><clipPath id="582a0bc1b1"><path d="M 465.195312 532.910156 C 465.269531 536.433594 464.820312 537.335938 464.296875 538.007812 C 463.769531 538.683594 462.945312 539.359375 462.195312 539.660156 C 461.371094 540.035156 460.398438 540.183594 459.5 540.183594 C 458.671875 540.109375 457.699219 539.808594 456.949219 539.359375 C 456.199219 538.910156 455.523438 538.234375 455.074219 537.484375 C 454.625 536.734375 454.324219 535.761719 454.25 534.859375 C 454.175781 534.035156 454.402344 533.0625 454.699219 532.238281 C 455.074219 531.414062 455.675781 530.664062 456.425781 530.136719 C 457.097656 529.613281 458 529.164062 458.824219 529.015625 C 459.722656 528.863281 460.699219 528.9375 461.523438 529.164062 C 462.347656 529.464844 463.847656 530.589844 463.847656 530.589844 " clip-rule="nonzero"/></clipPath><clipPath id="3b1bc2a402"><path d="M 0.203125 0.898438 L 11.265625 0.898438 L 11.265625 12.214844 L 0.203125 12.214844 Z M 0.203125 0.898438 " clip-rule="nonzero"/></clipPath><clipPath id="a34ba0950b"><path d="M 11.195312 4.910156 C 11.269531 8.433594 10.820312 9.335938 10.296875 10.007812 C 9.769531 10.683594 8.945312 11.359375 8.195312 11.660156 C 7.371094 12.035156 6.398438 12.183594 5.5 12.183594 C 4.671875 12.109375 3.699219 11.808594 2.949219 11.359375 C 2.199219 10.910156 1.523438 10.234375 1.074219 9.484375 C 0.625 8.734375 0.324219 7.761719 0.25 6.859375 C 0.175781 6.035156 0.402344 5.0625 0.699219 4.238281 C 1.074219 3.414062 1.675781 2.664062 2.425781 2.136719 C 3.097656 1.613281 4 1.164062 4.824219 1.015625 C 5.722656 0.863281 6.699219 0.9375 7.523438 1.164062 C 8.347656 1.464844 9.847656 2.589844 9.847656 2.589844 " clip-rule="nonzero"/></clipPath><clipPath id="eb29234028"><rect x="0" width="12" y="0" height="13"/></clipPath><clipPath id="1730748a57"><path d="M 406.339844 546 L 475.335938 546 L 475.335938 563.382812 L 406.339844 563.382812 Z M 406.339844 546 " clip-rule="nonzero"/></clipPath><clipPath id="cbc8c5405a"><path d="M 470.441406 556.976562 C 450.277344 558.472656 447.878906 557.949219 444.429688 558.175781 C 440.007812 558.472656 434.011719 560.273438 429.664062 560.722656 C 426.289062 561.023438 423.515625 560.574219 420.441406 560.949219 C 417.292969 561.398438 413.472656 563.722656 410.996094 563.273438 C 409.273438 562.898438 407.546875 561.699219 406.875 560.347656 C 406.199219 559 406.273438 556.601562 407.023438 555.324219 C 407.699219 553.976562 409.722656 552.703125 411.222656 552.550781 C 412.722656 552.402344 414.96875 553.375 415.871094 554.5 C 416.84375 555.699219 417.292969 558.023438 416.84375 559.449219 C 416.394531 560.871094 414.59375 562.523438 413.320312 563.046875 C 412.269531 563.496094 410.921875 563.347656 409.871094 562.972656 C 408.824219 562.597656 407.773438 561.847656 407.175781 560.871094 C 406.5 559.597656 406.347656 557.125 406.722656 555.851562 C 407.097656 554.726562 407.847656 553.976562 409.046875 553.226562 C 410.996094 551.953125 415.195312 550.753906 418.417969 550.226562 C 421.492188 549.777344 424.566406 550.601562 427.863281 550.304688 C 431.3125 549.929688 434.761719 548.503906 438.660156 548.128906 C 443.15625 547.679688 448.253906 548.277344 453.351562 547.980469 C 458.824219 547.679688 467.070312 545.503906 470.59375 546.179688 C 472.167969 546.480469 473.140625 547.078125 473.964844 547.980469 C 474.714844 548.953125 475.316406 550.453125 475.242188 551.652344 C 475.242188 552.851562 474.640625 554.351562 473.816406 555.25 C 473.066406 556.074219 470.441406 556.976562 470.441406 556.976562 " clip-rule="nonzero"/></clipPath><clipPath id="2451b52b2b"><path d="M 0.339844 0 L 69.335938 0 L 69.335938 17.382812 L 0.339844 17.382812 Z M 0.339844 0 " clip-rule="nonzero"/></clipPath><clipPath id="bd6243c009"><path d="M 64.441406 10.976562 C 44.277344 12.472656 41.878906 11.949219 38.429688 12.175781 C 34.007812 12.472656 28.011719 14.273438 23.664062 14.722656 C 20.289062 15.023438 17.515625 14.574219 14.441406 14.949219 C 11.292969 15.398438 7.472656 17.722656 4.996094 17.273438 C 3.273438 16.898438 1.546875 15.699219 0.875 14.347656 C 0.199219 13 0.273438 10.601562 1.023438 9.324219 C 1.699219 7.976562 3.722656 6.703125 5.222656 6.550781 C 6.722656 6.402344 8.96875 7.375 9.871094 8.5 C 10.84375 9.699219 11.292969 12.023438 10.84375 13.449219 C 10.394531 14.871094 8.59375 16.523438 7.320312 17.046875 C 6.269531 17.496094 4.921875 17.347656 3.871094 16.972656 C 2.824219 16.597656 1.773438 15.847656 1.175781 14.871094 C 0.5 13.597656 0.347656 11.125 0.722656 9.851562 C 1.097656 8.726562 1.847656 7.976562 3.046875 7.226562 C 4.996094 5.953125 9.195312 4.753906 12.417969 4.226562 C 15.492188 3.777344 18.566406 4.601562 21.863281 4.304688 C 25.3125 3.929688 28.761719 2.503906 32.660156 2.128906 C 37.15625 1.679688 42.253906 2.277344 47.351562 1.980469 C 52.824219 1.679688 61.070312 -0.496094 64.59375 0.179688 C 66.167969 0.480469 67.140625 1.078125 67.964844 1.980469 C 68.714844 2.953125 69.316406 4.453125 69.242188 5.652344 C 69.242188 6.851562 68.640625 8.351562 67.816406 9.25 C 67.066406 10.074219 64.441406 10.976562 64.441406 10.976562 " clip-rule="nonzero"/></clipPath><clipPath id="22dc9b561e"><rect x="0" width="70" y="0" height="18"/></clipPath><clipPath id="6e3c93b441"><path d="M 399.183594 549.210938 L 482.746094 549.210938 L 482.746094 569.285156 L 399.183594 569.285156 Z M 399.183594 549.210938 " clip-rule="nonzero"/></clipPath><clipPath id="8477c3021d"><path d="M 403.351562 560.347656 C 433.859375 560.648438 437.910156 560.421875 442.632812 559.898438 C 447.277344 559.296875 451.402344 558.699219 456.5 557.351562 C 463.246094 555.476562 475.613281 549.328125 479.136719 549.253906 C 480.1875 549.179688 480.636719 549.402344 481.164062 549.777344 C 481.761719 550.152344 482.285156 550.828125 482.511719 551.503906 C 482.738281 552.175781 482.8125 553 482.511719 553.675781 C 482.136719 554.425781 481.011719 555.550781 480.1875 555.851562 C 479.511719 556.074219 478.6875 556.074219 478.089844 555.699219 C 477.265625 555.324219 476.214844 554.203125 475.988281 553.300781 C 475.839844 552.402344 476.214844 550.976562 476.816406 550.304688 C 477.488281 549.628906 478.914062 549.105469 479.8125 549.253906 C 480.789062 549.402344 481.910156 550.378906 482.363281 551.128906 C 482.738281 551.800781 482.738281 552.628906 482.585938 553.300781 C 482.4375 553.976562 482.0625 554.5 481.460938 555.175781 C 480.488281 556.226562 478.914062 557.273438 476.664062 558.398438 C 472.691406 560.421875 464.371094 563.347656 458.75 564.921875 C 453.875 566.269531 450.050781 566.871094 444.804688 567.542969 C 438.058594 568.445312 428.839844 569.269531 421.492188 569.269531 C 414.96875 569.269531 406.347656 569.042969 402.902344 567.84375 C 401.402344 567.320312 400.503906 566.570312 399.902344 565.746094 C 399.453125 565.070312 399.152344 564.171875 399.226562 563.421875 C 399.378906 562.523438 400.203125 561.246094 400.953125 560.722656 C 401.625 560.273438 403.351562 560.347656 403.351562 560.347656 " clip-rule="nonzero"/></clipPath><clipPath id="359176045f"><path d="M 0.183594 0.210938 L 83.746094 0.210938 L 83.746094 20.285156 L 0.183594 20.285156 Z M 0.183594 0.210938 " clip-rule="nonzero"/></clipPath><clipPath id="738193220d"><path d="M 4.351562 11.347656 C 34.859375 11.648438 38.910156 11.421875 43.632812 10.898438 C 48.277344 10.296875 52.402344 9.699219 57.5 8.351562 C 64.246094 6.476562 76.613281 0.328125 80.136719 0.253906 C 81.1875 0.179688 81.636719 0.402344 82.164062 0.777344 C 82.761719 1.152344 83.285156 1.828125 83.511719 2.503906 C 83.738281 3.175781 83.8125 4 83.511719 4.675781 C 83.136719 5.425781 82.011719 6.550781 81.1875 6.851562 C 80.511719 7.074219 79.6875 7.074219 79.089844 6.699219 C 78.265625 6.324219 77.214844 5.203125 76.988281 4.300781 C 76.839844 3.402344 77.214844 1.976562 77.816406 1.304688 C 78.488281 0.628906 79.914062 0.105469 80.8125 0.253906 C 81.789062 0.402344 82.910156 1.378906 83.363281 2.128906 C 83.738281 2.800781 83.738281 3.628906 83.585938 4.300781 C 83.4375 4.976562 83.0625 5.5 82.460938 6.175781 C 81.488281 7.226562 79.914062 8.273438 77.664062 9.398438 C 73.691406 11.421875 65.371094 14.347656 59.75 15.921875 C 54.875 17.269531 51.050781 17.871094 45.804688 18.542969 C 39.058594 19.445312 29.839844 20.269531 22.492188 20.269531 C 15.96875 20.269531 7.347656 20.042969 3.902344 18.84375 C 2.402344 18.320312 1.503906 17.570312 0.902344 16.746094 C 0.453125 16.070312 0.152344 15.171875 0.226562 14.421875 C 0.378906 13.523438 1.203125 12.246094 1.953125 11.722656 C 2.625 11.273438 4.351562 11.347656 4.351562 11.347656 " clip-rule="nonzero"/></clipPath><clipPath id="5792c4a236"><rect x="0" width="84" y="0" height="21"/></clipPath><clipPath id="184e9cecf4"><path d="M 286.332031 295.5625 L 341.597656 295.5625 L 341.597656 355.808594 L 286.332031 355.808594 Z M 286.332031 295.5625 " clip-rule="nonzero"/></clipPath><clipPath id="3d4b51e0f0"><path d="M 338.507812 303.074219 C 311.597656 321.964844 309.945312 323.316406 307.625 325.863281 C 304.847656 328.9375 301.625 332.609375 299.378906 336.882812 C 296.902344 341.605469 295.777344 350.300781 293.828125 353.226562 C 293.003906 354.5 292.105469 355.25 291.132812 355.550781 C 290.304688 355.773438 289.183594 355.550781 288.433594 355.175781 C 287.683594 354.726562 287.007812 353.824219 286.707031 353.074219 C 286.410156 352.476562 286.410156 352.027344 286.484375 351.277344 C 286.632812 350.003906 287.382812 347.902344 288.359375 346.105469 C 289.707031 343.855469 292.03125 342.054688 294.355469 339.058594 C 298.027344 334.183594 304.398438 323.242188 307.773438 319.492188 C 309.347656 317.769531 310.621094 316.71875 311.746094 316.195312 C 312.496094 315.742188 313.171875 315.519531 313.84375 315.667969 C 314.746094 315.820312 316.09375 316.570312 316.46875 317.394531 C 316.917969 318.21875 316.917969 319.792969 316.542969 320.542969 C 316.242188 321.214844 315.644531 321.742188 314.96875 322.039062 C 314.371094 322.339844 313.546875 322.566406 312.871094 322.339844 C 312.046875 322.117188 310.773438 321.140625 310.398438 320.316406 C 310.097656 319.492188 310.246094 317.917969 310.695312 317.167969 C 311.222656 316.417969 312.570312 315.667969 313.46875 315.667969 C 314.445312 315.667969 315.792969 316.34375 316.320312 317.09375 C 316.84375 317.84375 316.992188 318.96875 316.695312 320.242188 C 316.167969 322.714844 313.171875 326.839844 310.773438 330.511719 C 307.847656 335.085938 303.199219 341.082031 299.902344 345.503906 C 297.351562 348.953125 294.730469 353.300781 292.78125 354.726562 C 291.804688 355.398438 291.054688 355.625 290.230469 355.625 C 289.40625 355.625 288.359375 355.175781 287.683594 354.648438 C 287.082031 354.050781 286.632812 353.375 286.484375 352.175781 C 286.183594 349.628906 288.28125 343.253906 289.632812 339.507812 C 290.757812 336.433594 291.878906 334.261719 293.679688 331.410156 C 295.855469 327.886719 299.078125 323.613281 302.300781 320.316406 C 305.449219 316.945312 308.523438 314.542969 312.871094 311.320312 C 319.015625 306.671875 331.6875 297.003906 336.109375 295.953125 C 337.683594 295.578125 338.65625 295.953125 339.558594 296.402344 C 340.308594 296.851562 340.90625 297.601562 341.207031 298.351562 C 341.429688 299.101562 341.429688 300.226562 341.132812 300.976562 C 340.683594 301.800781 338.507812 303.074219 338.507812 303.074219 " clip-rule="nonzero"/></clipPath><clipPath id="469dea93a8"><path d="M 0.332031 0.5625 L 55.550781 0.5625 L 55.550781 60.808594 L 0.332031 60.808594 Z M 0.332031 0.5625 " clip-rule="nonzero"/></clipPath><clipPath id="0baf0f86ae"><path d="M 52.507812 8.074219 C 25.597656 26.964844 23.945312 28.316406 21.625 30.863281 C 18.847656 33.9375 15.625 37.609375 13.378906 41.882812 C 10.902344 46.605469 9.777344 55.300781 7.828125 58.226562 C 7.003906 59.5 6.105469 60.25 5.132812 60.550781 C 4.304688 60.773438 3.183594 60.550781 2.433594 60.175781 C 1.683594 59.726562 1.007812 58.824219 0.707031 58.074219 C 0.410156 57.476562 0.410156 57.027344 0.484375 56.277344 C 0.632812 55.003906 1.382812 52.902344 2.359375 51.105469 C 3.707031 48.855469 6.03125 47.054688 8.355469 44.058594 C 12.027344 39.183594 18.398438 28.242188 21.773438 24.492188 C 23.347656 22.769531 24.621094 21.71875 25.746094 21.195312 C 26.496094 20.742188 27.171875 20.519531 27.84375 20.667969 C 28.746094 20.820312 30.09375 21.570312 30.46875 22.394531 C 30.917969 23.21875 30.917969 24.792969 30.542969 25.542969 C 30.242188 26.214844 29.644531 26.742188 28.96875 27.039062 C 28.371094 27.339844 27.546875 27.566406 26.871094 27.339844 C 26.046875 27.117188 24.773438 26.140625 24.398438 25.316406 C 24.097656 24.492188 24.246094 22.917969 24.695312 22.167969 C 25.222656 21.417969 26.570312 20.667969 27.46875 20.667969 C 28.445312 20.667969 29.792969 21.34375 30.320312 22.09375 C 30.84375 22.84375 30.992188 23.96875 30.695312 25.242188 C 30.167969 27.714844 27.171875 31.839844 24.773438 35.511719 C 21.847656 40.085938 17.199219 46.082031 13.902344 50.503906 C 11.351562 53.953125 8.730469 58.300781 6.78125 59.726562 C 5.804688 60.398438 5.054688 60.625 4.230469 60.625 C 3.40625 60.625 2.359375 60.175781 1.683594 59.648438 C 1.082031 59.050781 0.632812 58.375 0.484375 57.175781 C 0.183594 54.628906 2.28125 48.253906 3.632812 44.507812 C 4.757812 41.433594 5.878906 39.261719 7.679688 36.410156 C 9.855469 32.886719 13.078125 28.613281 16.300781 25.316406 C 19.449219 21.945312 22.523438 19.542969 26.871094 16.320312 C 33.015625 11.671875 45.6875 2.003906 50.109375 0.953125 C 51.683594 0.578125 52.65625 0.953125 53.558594 1.402344 C 54.308594 1.851562 54.90625 2.601562 55.207031 3.351562 C 55.429688 4.101562 55.429688 5.226562 55.132812 5.976562 C 54.683594 6.800781 52.507812 8.074219 52.507812 8.074219 " clip-rule="nonzero"/></clipPath><clipPath id="1103ea653c"><rect x="0" width="56" y="0" height="61"/></clipPath><clipPath id="293d548d2f"><path d="M 381.152344 534.839844 L 411.144531 534.839844 L 411.144531 567.457031 L 381.152344 567.457031 Z M 381.152344 534.839844 " clip-rule="nonzero"/></clipPath><clipPath id="d2b97d2fc2"><path d="M 403.277344 559.296875 C 398.628906 560.125 402.152344 546.179688 403.875 546.105469 C 405.75 546.03125 412.570312 560.347656 410.773438 563.871094 C 409.121094 566.945312 398.851562 567.542969 395.855469 567.394531 C 394.503906 567.320312 393.53125 567.394531 393.007812 566.421875 C 391.433594 563.570312 401.625 541.382812 399.976562 540.40625 C 399.152344 539.882812 395.554688 542.730469 394.128906 545.28125 C 391.882812 549.402344 394.054688 563.796875 391.507812 564.695312 C 389.332031 565.445312 382.359375 559.074219 381.386719 554.949219 C 380.261719 550.152344 385.285156 539.808594 387.683594 536.960938 C 388.734375 535.609375 389.859375 534.5625 391.132812 534.9375 C 394.429688 535.910156 403.277344 559.296875 403.277344 559.296875 " clip-rule="nonzero"/></clipPath><mask id="4678ac9181"><g filter="url(#b38c180562)"><rect x="-81" width="972" fill="#000000" y="-101.249997" height="1214.999964" fill-opacity="0.5"/></g></mask><clipPath id="9fca7f42a6"><path d="M 0.152344 0.839844 L 30.144531 0.839844 L 30.144531 33.457031 L 0.152344 33.457031 Z M 0.152344 0.839844 " clip-rule="nonzero"/></clipPath><clipPath id="b1d2cae666"><path d="M 22.277344 25.296875 C 17.628906 26.125 21.152344 12.179688 22.875 12.105469 C 24.75 12.03125 31.570312 26.347656 29.773438 29.871094 C 28.121094 32.945312 17.851562 33.542969 14.855469 33.394531 C 13.503906 33.320312 12.53125 33.394531 12.007812 32.421875 C 10.433594 29.570312 20.625 7.382812 18.976562 6.40625 C 18.152344 5.882812 14.554688 8.730469 13.128906 11.28125 C 10.882812 15.402344 13.054688 29.796875 10.507812 30.695312 C 8.332031 31.445312 1.359375 25.074219 0.386719 20.949219 C -0.738281 16.152344 4.285156 5.808594 6.683594 2.960938 C 7.734375 1.609375 8.859375 0.5625 10.132812 0.9375 C 13.429688 1.910156 22.277344 25.296875 22.277344 25.296875 " clip-rule="nonzero"/></clipPath><clipPath id="ad0f2b897a"><rect x="0" width="31" y="0" height="34"/></clipPath><clipPath id="23a4af3a8a"><path d="M 377.832031 545 L 407.707031 545 L 407.707031 568.0625 L 377.832031 568.0625 Z M 377.832031 545 " clip-rule="nonzero"/></clipPath><clipPath id="d9dad0e4dd"><path d="M 394.054688 548.804688 C 393.90625 554.050781 391.65625 557.199219 389.933594 558.398438 C 388.433594 559.375 385.585938 560.199219 384.984375 559.597656 C 384.386719 558.925781 385.585938 554.726562 386.710938 554.050781 C 387.757812 553.527344 389.484375 555.027344 391.28125 555.25 C 393.980469 555.625 398.554688 554.277344 401.328125 555.25 C 403.875 556.226562 407.25 558.625 407.625 560.574219 C 407.921875 562.371094 405.898438 565.222656 404.476562 566.421875 C 403.277344 567.394531 401.550781 567.542969 399.976562 567.769531 C 398.328125 568.070312 396.527344 568.144531 394.730469 567.917969 C 392.78125 567.621094 390.683594 566.71875 388.808594 565.894531 C 386.933594 565.144531 385.058594 564.246094 383.5625 563.195312 C 382.210938 562.296875 380.710938 561.398438 380.113281 560.273438 C 379.585938 559.222656 379.511719 557.949219 379.738281 556.898438 C 379.960938 555.851562 380.5625 554.652344 381.535156 554.050781 C 382.585938 553.226562 384.910156 552.628906 386.335938 553 C 387.683594 553.375 389.40625 555.027344 389.859375 556.375 C 390.308594 557.800781 389.78125 560.125 389.03125 561.246094 C 388.433594 562.222656 387.308594 562.898438 386.257812 563.121094 C 385.210938 563.421875 383.859375 563.347656 382.886719 562.972656 C 381.910156 562.523438 380.863281 561.621094 380.335938 560.722656 C 379.8125 559.824219 379.511719 558.472656 379.664062 557.425781 C 379.738281 556.375 380.335938 555.175781 381.085938 554.425781 C 381.835938 553.675781 383.035156 553 384.085938 552.851562 C 385.136719 552.703125 386.410156 552.925781 387.382812 553.453125 C 388.285156 553.902344 388.507812 555.175781 389.707031 555.851562 C 391.65625 557.125 397.578125 556.824219 398.851562 558.699219 C 399.902344 560.273438 399.601562 564.394531 398.179688 565.445312 C 396.003906 567.019531 386.933594 563.796875 383.5625 562.523438 C 381.613281 561.773438 380.261719 561.171875 379.363281 559.898438 C 378.386719 558.699219 377.714844 556.601562 378.011719 555.101562 C 378.3125 553.527344 379.8125 551.128906 381.160156 550.679688 C 382.359375 550.304688 384.910156 552.703125 385.507812 552.175781 C 386.109375 551.726562 384.683594 549.253906 385.136719 548.128906 C 385.585938 546.929688 387.007812 545.429688 388.207031 545.128906 C 389.40625 544.757812 391.433594 545.28125 392.40625 545.957031 C 393.304688 546.554688 394.054688 548.804688 394.054688 548.804688 " clip-rule="nonzero"/></clipPath><clipPath id="167e5c9dd1"><path d="M 0.832031 0 L 30.707031 0 L 30.707031 23.0625 L 0.832031 23.0625 Z M 0.832031 0 " clip-rule="nonzero"/></clipPath><clipPath id="f7d15f22fb"><path d="M 17.054688 3.804688 C 16.90625 9.050781 14.65625 12.199219 12.933594 13.398438 C 11.433594 14.375 8.585938 15.199219 7.984375 14.597656 C 7.386719 13.925781 8.585938 9.726562 9.710938 9.050781 C 10.757812 8.527344 12.484375 10.027344 14.28125 10.25 C 16.980469 10.625 21.554688 9.277344 24.328125 10.25 C 26.875 11.226562 30.25 13.625 30.625 15.574219 C 30.921875 17.371094 28.898438 20.222656 27.476562 21.421875 C 26.277344 22.394531 24.550781 22.542969 22.976562 22.769531 C 21.328125 23.070312 19.527344 23.144531 17.730469 22.917969 C 15.78125 22.621094 13.683594 21.71875 11.808594 20.894531 C 9.933594 20.144531 8.058594 19.246094 6.5625 18.195312 C 5.210938 17.296875 3.710938 16.398438 3.113281 15.273438 C 2.585938 14.222656 2.511719 12.949219 2.738281 11.898438 C 2.960938 10.851562 3.5625 9.652344 4.535156 9.050781 C 5.585938 8.226562 7.910156 7.628906 9.335938 8 C 10.683594 8.375 12.40625 10.027344 12.859375 11.375 C 13.308594 12.800781 12.78125 15.125 12.03125 16.246094 C 11.433594 17.222656 10.308594 17.898438 9.257812 18.121094 C 8.210938 18.421875 6.859375 18.347656 5.886719 17.972656 C 4.910156 17.523438 3.863281 16.621094 3.335938 15.722656 C 2.8125 14.824219 2.511719 13.472656 2.664062 12.425781 C 2.738281 11.375 3.335938 10.175781 4.085938 9.425781 C 4.835938 8.675781 6.035156 8 7.085938 7.851562 C 8.136719 7.703125 9.410156 7.925781 10.382812 8.453125 C 11.285156 8.902344 11.507812 10.175781 12.707031 10.851562 C 14.65625 12.125 20.578125 11.824219 21.851562 13.699219 C 22.902344 15.273438 22.601562 19.394531 21.179688 20.445312 C 19.003906 22.019531 9.933594 18.796875 6.5625 17.523438 C 4.613281 16.773438 3.261719 16.171875 2.363281 14.898438 C 1.386719 13.699219 0.714844 11.601562 1.011719 10.101562 C 1.3125 8.527344 2.8125 6.128906 4.160156 5.679688 C 5.359375 5.304688 7.910156 7.703125 8.507812 7.175781 C 9.109375 6.726562 7.683594 4.253906 8.136719 3.128906 C 8.585938 1.929688 10.007812 0.429688 11.207031 0.128906 C 12.40625 -0.242188 14.433594 0.28125 15.40625 0.957031 C 16.304688 1.554688 17.054688 3.804688 17.054688 3.804688 " clip-rule="nonzero"/></clipPath><clipPath id="7037655831"><rect x="0" width="31" y="0" height="24"/></clipPath><clipPath id="0b2e4327d6"><path d="M 378.492188 554.15625 L 397.972656 554.15625 L 397.972656 564.976562 L 378.492188 564.976562 Z M 378.492188 554.15625 " clip-rule="nonzero"/></clipPath><clipPath id="c2e6d52853"><path d="M 383.933594 555.101562 C 391.507812 554.949219 392.257812 554.203125 393.230469 554.203125 C 394.207031 554.203125 395.328125 554.652344 396.078125 555.25 C 396.828125 555.851562 397.503906 556.824219 397.804688 557.800781 C 398.027344 558.699219 397.953125 559.898438 397.578125 560.796875 C 397.203125 561.699219 396.378906 562.597656 395.554688 563.121094 C 394.730469 563.570312 393.53125 563.796875 392.554688 563.722656 C 391.65625 563.570312 390.53125 563.046875 389.859375 562.371094 C 389.183594 561.699219 388.507812 560.722656 388.433594 559.671875 C 388.359375 558.472656 389.109375 556.375 389.933594 555.476562 C 390.605469 554.726562 391.730469 554.351562 392.707031 554.277344 C 393.679688 554.125 394.878906 554.351562 395.703125 554.949219 C 396.679688 555.699219 397.878906 557.5 397.953125 558.773438 C 397.953125 560.125 397.203125 561.847656 396.003906 562.820312 C 394.429688 564.097656 390.683594 564.769531 388.507812 564.921875 C 386.785156 565.070312 385.433594 564.847656 384.011719 564.472656 C 382.660156 564.171875 381.085938 564.019531 380.1875 563.195312 C 379.289062 562.296875 378.464844 560.5 378.539062 559.296875 C 378.539062 558.25 379.0625 557.050781 379.886719 556.300781 C 380.785156 555.550781 383.933594 555.101562 383.933594 555.101562 " clip-rule="nonzero"/></clipPath><clipPath id="9b1399c00d"><path d="M 0.492188 0.15625 L 19.972656 0.15625 L 19.972656 10.976562 L 0.492188 10.976562 Z M 0.492188 0.15625 " clip-rule="nonzero"/></clipPath><clipPath id="54f3195b8a"><path d="M 5.933594 1.101562 C 13.507812 0.949219 14.257812 0.203125 15.230469 0.203125 C 16.207031 0.203125 17.328125 0.652344 18.078125 1.25 C 18.828125 1.851562 19.503906 2.824219 19.804688 3.800781 C 20.027344 4.699219 19.953125 5.898438 19.578125 6.796875 C 19.203125 7.699219 18.378906 8.597656 17.554688 9.121094 C 16.730469 9.570312 15.53125 9.796875 14.554688 9.722656 C 13.65625 9.570312 12.53125 9.046875 11.859375 8.371094 C 11.183594 7.699219 10.507812 6.722656 10.433594 5.671875 C 10.359375 4.472656 11.109375 2.375 11.933594 1.476562 C 12.605469 0.726562 13.730469 0.351562 14.707031 0.277344 C 15.679688 0.125 16.878906 0.351562 17.703125 0.949219 C 18.679688 1.699219 19.878906 3.5 19.953125 4.773438 C 19.953125 6.125 19.203125 7.847656 18.003906 8.820312 C 16.429688 10.097656 12.683594 10.769531 10.507812 10.921875 C 8.785156 11.070312 7.433594 10.847656 6.011719 10.472656 C 4.660156 10.171875 3.085938 10.019531 2.1875 9.195312 C 1.289062 8.296875 0.464844 6.5 0.539062 5.296875 C 0.539062 4.25 1.0625 3.050781 1.886719 2.300781 C 2.785156 1.550781 5.933594 1.101562 5.933594 1.101562 " clip-rule="nonzero"/></clipPath><clipPath id="242c1a4935"><rect x="0" width="20" y="0" height="11"/></clipPath><clipPath id="d6d5322ef1"><path d="M 371.125 548.0625 L 395.148438 548.0625 L 395.148438 566.128906 L 371.125 566.128906 Z M 371.125 548.0625 " clip-rule="nonzero"/></clipPath><clipPath id="a9ff4caba8"><path d="M 390.980469 566.046875 C 386.632812 566.121094 380.785156 565.070312 378.238281 563.570312 C 376.4375 562.445312 375.390625 560.949219 374.265625 559.375 C 372.992188 557.574219 371.265625 555.175781 371.191406 553.300781 C 371.191406 551.800781 372.015625 549.929688 373.066406 549.105469 C 374.117188 548.277344 376.363281 547.980469 377.636719 548.277344 C 378.6875 548.503906 379.585938 549.328125 380.1875 550.152344 C 380.710938 550.976562 381.085938 552.175781 381.011719 553.152344 C 381.011719 554.203125 380.5625 555.324219 379.886719 556.148438 C 379.289062 556.898438 378.3125 557.648438 377.265625 557.800781 C 375.988281 557.949219 373.816406 557.425781 372.765625 556.601562 C 371.941406 556 371.417969 554.800781 371.265625 553.828125 C 371.117188 552.851562 371.191406 551.652344 371.714844 550.753906 C 372.390625 549.628906 374.191406 548.277344 375.539062 548.128906 C 376.890625 547.90625 378.613281 548.730469 379.8125 549.777344 C 381.3125 550.976562 381.910156 554.425781 383.410156 555.625 C 384.761719 556.675781 386.632812 556.898438 388.058594 557.125 C 389.257812 557.273438 390.308594 556.75 391.355469 556.976562 C 392.40625 557.273438 393.53125 557.722656 394.207031 558.625 C 394.878906 559.597656 395.253906 561.621094 395.03125 562.746094 C 394.804688 563.796875 393.832031 564.847656 393.082031 565.371094 C 392.480469 565.820312 390.980469 566.046875 390.980469 566.046875 " clip-rule="nonzero"/></clipPath><clipPath id="63bd13bca7"><path d="M 0.125 0.0625 L 24.148438 0.0625 L 24.148438 18.121094 L 0.125 18.121094 Z M 0.125 0.0625 " clip-rule="nonzero"/></clipPath><clipPath id="e171fac9dd"><path d="M 19.980469 18.046875 C 15.632812 18.121094 9.785156 17.070312 7.238281 15.570312 C 5.4375 14.445312 4.390625 12.949219 3.265625 11.375 C 1.992188 9.574219 0.265625 7.175781 0.191406 5.300781 C 0.191406 3.800781 1.015625 1.929688 2.066406 1.105469 C 3.117188 0.277344 5.363281 -0.0195312 6.636719 0.277344 C 7.6875 0.503906 8.585938 1.328125 9.1875 2.152344 C 9.710938 2.976562 10.085938 4.175781 10.011719 5.152344 C 10.011719 6.203125 9.5625 7.324219 8.886719 8.148438 C 8.289062 8.898438 7.3125 9.648438 6.265625 9.800781 C 4.988281 9.949219 2.816406 9.425781 1.765625 8.601562 C 0.941406 8 0.417969 6.800781 0.265625 5.828125 C 0.117188 4.851562 0.191406 3.652344 0.714844 2.753906 C 1.390625 1.628906 3.191406 0.277344 4.539062 0.128906 C 5.890625 -0.09375 7.613281 0.730469 8.8125 1.777344 C 10.3125 2.976562 10.910156 6.425781 12.410156 7.625 C 13.761719 8.675781 15.632812 8.898438 17.058594 9.125 C 18.257812 9.273438 19.308594 8.75 20.355469 8.976562 C 21.40625 9.273438 22.53125 9.722656 23.207031 10.625 C 23.878906 11.597656 24.253906 13.621094 24.03125 14.746094 C 23.804688 15.796875 22.832031 16.847656 22.082031 17.371094 C 21.480469 17.820312 19.980469 18.046875 19.980469 18.046875 " clip-rule="nonzero"/></clipPath><clipPath id="8243c5e2f7"><rect x="0" width="25" y="0" height="19"/></clipPath></defs><g transform="matrix(1, 0, 0, 1, 257, 131)"><g clip-path="url(#ec24ad55f9)"><g fill="#002d62" fill-opacity="1"><g transform="translate(315.367709, 109.742276)"><g><path d="M -186.296875 217.140625 C -175.566406 215.640625 -165.582031 216.75 -156.34375 220.46875 C -147.113281 224.195312 -138.347656 229.320312 -130.046875 235.84375 C -121.742188 242.363281 -113.914062 249.171875 -106.5625 256.265625 C -99.207031 263.359375 -92.070312 269.445312 -85.15625 274.53125 C -78.238281 279.625 -71.460938 282.664062 -64.828125 283.65625 C -58.191406 284.644531 -51.578125 282.316406 -44.984375 276.671875 C -37.304688 270.273438 -34.359375 259.664062 -36.140625 244.84375 C -37.921875 230.03125 -43.796875 212.90625 -53.765625 193.46875 C -63.734375 174.03125 -76.898438 154.378906 -93.265625 134.515625 C -110.984375 113.660156 -128.707031 96.863281 -146.4375 84.125 C -164.164062 71.394531 -180.210938 64.410156 -194.578125 63.171875 C -208.066406 61.804688 -219.878906 63.976562 -230.015625 69.6875 C -240.148438 75.394531 -248.796875 83.253906 -255.953125 93.265625 C -263.117188 103.285156 -268.601562 113.734375 -272.40625 124.609375 L -281.75 121.046875 C -276.207031 103.722656 -267.144531 87.753906 -254.5625 73.140625 C -241.988281 58.523438 -227.207031 46.476562 -210.21875 37 C -193.226562 27.53125 -175.019531 21.429688 -155.59375 18.703125 C -135.3125 15.859375 -115.710938 17.097656 -96.796875 22.421875 C -77.878906 27.753906 -60.71875 36.359375 -45.3125 48.234375 C -29.90625 60.109375 -17.09375 74.5625 -6.875 91.59375 C 3.332031 108.625 9.898438 127.578125 12.828125 148.453125 C 15.753906 169.304688 14.644531 189.328125 9.5 208.515625 C 4.363281 227.710938 -3.972656 245.132812 -15.515625 260.78125 C -27.054688 276.4375 -41.203125 289.351562 -57.953125 299.53125 C -74.703125 309.707031 -93.21875 316.21875 -113.5 319.0625 C -124.507812 320.601562 -134.738281 320.335938 -144.1875 318.265625 C -153.644531 316.191406 -162.453125 313.4375 -170.609375 310 C -178.765625 306.570312 -186.265625 303.632812 -193.109375 301.1875 C -199.953125 298.75 -206.128906 297.921875 -211.640625 298.703125 C -222.359375 300.203125 -228.988281 304.007812 -231.53125 310.125 C -234.082031 316.25 -234.6875 324.09375 -233.34375 333.65625 L -242.90625 334.984375 C -246.300781 323.347656 -248.226562 311.132812 -248.6875 298.34375 C -249.15625 285.5625 -247.535156 273.441406 -243.828125 261.984375 C -240.117188 250.523438 -233.660156 240.753906 -224.453125 232.671875 C -215.242188 224.585938 -202.523438 219.410156 -186.296875 217.140625 Z M -186.296875 217.140625 "/></g></g></g></g></g><g transform="matrix(1, 0, 0, 1, 250, 257)"><g clip-path="url(#72f1cf5b7b)"><g fill="#002d62" fill-opacity="1"><g transform="translate(13.031265, 292.111107)"><g><path d="M 184.546875 -121.90625 L 176.75 -112.59375 L 141.0625 -116.765625 C 120.894531 -119.128906 107.171875 -113.859375 99.890625 -100.953125 C 92.617188 -88.046875 93.582031 -69.382812 102.78125 -44.96875 C 108.789062 -29.070312 116.910156 -17.25 127.140625 -9.5 C 137.367188 -1.75 148.507812 2.695312 160.5625 3.84375 C 172.625 5 184.675781 3.398438 196.71875 -0.953125 C 208.757812 -5.316406 219.5625 -11.390625 229.125 -19.171875 L 232.84375 -14.015625 C 224.082031 -6.398438 214.597656 0.148438 204.390625 5.640625 C 194.191406 11.140625 182.609375 14.960938 169.640625 17.109375 C 156.671875 19.265625 141.394531 19.3125 123.8125 17.25 C 99.507812 14.40625 78.992188 8.859375 62.265625 0.609375 C 45.535156 -7.640625 33.078125 -17.679688 24.890625 -29.515625 C 16.703125 -41.359375 13.441406 -54.394531 15.109375 -68.625 C 16.597656 -81.289062 21.273438 -91.554688 29.140625 -99.421875 C 37.015625 -107.285156 47.21875 -113.296875 59.75 -117.453125 C 72.289062 -121.617188 86.34375 -124.101562 101.90625 -124.90625 C 88.363281 -130.164062 77.007812 -137.257812 67.84375 -146.1875 C 58.675781 -155.125 52.015625 -164.816406 47.859375 -175.265625 C 43.710938 -185.722656 42.039062 -196.078125 42.84375 -206.328125 C 43.644531 -216.585938 47.257812 -225.664062 53.6875 -233.5625 C 60.125 -241.46875 69.40625 -247.398438 81.53125 -251.359375 C 93.65625 -255.316406 108.769531 -256.234375 126.875 -254.109375 C 136.445312 -252.984375 145.191406 -250.453125 153.109375 -246.515625 C 161.035156 -242.578125 168.191406 -238.195312 174.578125 -233.375 C 180.960938 -228.5625 186.890625 -224.328125 192.359375 -220.671875 C 197.828125 -217.023438 203.019531 -214.910156 207.9375 -214.328125 C 217.5 -213.210938 224.0625 -215 227.625 -219.6875 C 231.195312 -224.382812 233.484375 -231.003906 234.484375 -239.546875 L 243.015625 -238.546875 C 243.316406 -227.765625 242.226562 -216.8125 239.75 -205.6875 C 237.28125 -194.570312 233.15625 -184.503906 227.375 -175.484375 C 221.59375 -166.472656 213.832031 -159.519531 204.09375 -154.625 C 194.351562 -149.738281 182.238281 -148.144531 167.75 -149.84375 C 158.175781 -150.957031 150.078125 -154 143.453125 -158.96875 C 136.835938 -163.9375 131.179688 -169.90625 126.484375 -176.875 C 121.796875 -183.84375 117.570312 -190.890625 113.8125 -198.015625 C 110.0625 -205.140625 106.210938 -211.425781 102.265625 -216.875 C 98.316406 -222.320312 93.910156 -226.113281 89.046875 -228.25 C 84.179688 -230.394531 78.144531 -229.796875 70.9375 -226.453125 C 65.40625 -223.953125 61.257812 -219.320312 58.5 -212.5625 C 55.75 -205.800781 54.972656 -198.023438 56.171875 -189.234375 C 57.378906 -180.453125 60.8125 -171.726562 66.46875 -163.0625 C 72.132812 -154.40625 80.492188 -146.875 91.546875 -140.46875 C 102.597656 -134.0625 116.785156 -129.84375 134.109375 -127.8125 Z M 184.546875 -121.90625 "/></g></g></g></g></g><g transform="matrix(1, 0, 0, 1, 235, 420)"><g clip-path="url(#569c185ad1)"><g fill="#002d62" fill-opacity="1"><g transform="translate(197.276971, 321.839466)"><g><path d="M 56.8125 -204.1875 C 62.457031 -201.101562 68.414062 -196.976562 74.6875 -191.8125 C 80.957031 -186.644531 86.707031 -180.613281 91.9375 -173.71875 C 97.175781 -166.832031 100.972656 -159.273438 103.328125 -151.046875 C 105.691406 -142.828125 105.707031 -134.03125 103.375 -124.65625 C 101.039062 -115.28125 95.523438 -105.613281 86.828125 -95.65625 C 79.953125 -87.789062 73.1875 -81.988281 66.53125 -78.25 C 59.875 -74.519531 53.429688 -71.910156 47.203125 -70.421875 C 40.972656 -68.929688 35.164062 -67.835938 29.78125 -67.140625 C 24.394531 -66.453125 19.476562 -65.503906 15.03125 -64.296875 C 10.59375 -63.097656 6.769531 -60.660156 3.5625 -56.984375 C -1.78125 -50.867188 -4.476562 -45.132812 -4.53125 -39.78125 C -4.582031 -34.4375 -3.054688 -29.484375 0.046875 -24.921875 C 3.148438 -20.367188 6.800781 -16.257812 11 -12.59375 L 5.28125 -6.03125 L -172.46875 -161.359375 L -122.3125 -218.765625 L -40.25 -147.0625 C -34.132812 -141.707031 -30.640625 -136.179688 -29.765625 -130.484375 C -28.890625 -124.796875 -29.265625 -118.8125 -30.890625 -112.53125 C -32.523438 -106.25 -34.050781 -99.566406 -35.46875 -92.484375 C -36.882812 -85.398438 -36.957031 -77.992188 -35.6875 -70.265625 C -34.425781 -62.535156 -30.457031 -54.207031 -23.78125 -45.28125 C -29.570312 -60.519531 -30.625 -75.003906 -26.9375 -88.734375 C -23.257812 -102.472656 -17.453125 -113.890625 -9.515625 -122.984375 C -3.859375 -129.453125 2.304688 -134.390625 8.984375 -137.796875 C 15.660156 -141.210938 22.179688 -143.914062 28.546875 -145.90625 C 34.910156 -147.894531 40.703125 -149.765625 45.921875 -151.515625 C 51.148438 -153.265625 55.140625 -155.710938 57.890625 -158.859375 C 61.703125 -163.222656 63.519531 -168.03125 63.34375 -173.28125 C 63.164062 -178.53125 61.847656 -183.457031 59.390625 -188.0625 C 56.941406 -192.675781 54.085938 -195.941406 50.828125 -197.859375 Z M 56.8125 -204.1875 "/></g></g></g></g></g><path stroke-linecap="butt" transform="matrix(0.398953, 0.63465, -0.63465, 0.398953, 352.096941, 293.77387)" fill="none" stroke-linejoin="miter" d="M 3.694839 2.2969 C -0.747203 169.596989 69.732414 169.59839 215.143648 2.295052 " stroke="#002d62" stroke-width="7" stroke-opacity="1" stroke-miterlimit="4"/><g clip-path="url(#f2d1975bf2)"><g clip-path="url(#20c88d4efb)"><g clip-path="url(#cb2bae62f3)"><g transform="matrix(1, 0, 0, 1, 294, 331)"><g clip-path="url(#2696df3074)"><g clip-path="url(#58f382c48e)"><g clip-path="url(#27b6adc5b3)"><g clip-path="url(#53f8e7bab6)"><path fill="#002d62" d="M -1.554688 3.015625 L 19.648438 -1.097656 L 24.519531 24 L 3.316406 28.113281 Z M -1.554688 3.015625 " fill-opacity="1" fill-rule="nonzero"/></g></g></g></g></g></g></g></g><g clip-path="url(#9773643e53)"><g clip-path="url(#28cf087f66)"><g clip-path="url(#9c0eb23ba9)"><g transform="matrix(1, 0, 0, 1, 286, 344)"><g clip-path="url(#4c391c4840)"><g clip-path="url(#e70bd2bff8)"><g clip-path="url(#1e0429f14b)"><g clip-path="url(#1a33750c7b)"><path fill="#002d62" d="M -1.699219 3.492188 L 26.175781 -1.917969 L 32.113281 28.679688 L 4.238281 34.089844 Z M -1.699219 3.492188 " fill-opacity="1" fill-rule="nonzero"/></g></g></g></g></g></g></g></g><g clip-path="url(#48b5a9256e)"><g clip-path="url(#d65fb4d1de)"><g clip-path="url(#40c3b74410)"><g transform="matrix(1, 0, 0, 1, 312, 316)"><g clip-path="url(#d0b7181cba)"><g clip-path="url(#6895908249)"><g clip-path="url(#b509e30990)"><g clip-path="url(#b5b30e9c0b)"><path fill="#002d62" d="M -0.769531 1.429688 L 10.585938 -0.773438 L 13.003906 11.691406 L 1.648438 13.894531 Z M -0.769531 1.429688 " fill-opacity="1" fill-rule="nonzero"/></g></g></g></g></g></g></g></g><g clip-path="url(#66ef3a404d)"><g clip-path="url(#01bddc7313)"><g clip-path="url(#0aafd45ec6)"><g transform="matrix(1, 0, 0, 1, 294, 364)"><g clip-path="url(#515e8d33ed)"><g clip-path="url(#2855a5b50d)"><g clip-path="url(#97bb3ee8f5)"><g clip-path="url(#f2a3133be7)"><path fill="#002d62" d="M 9.015625 -3.128906 L 30.183594 20.183594 L 18.527344 30.765625 L -2.640625 7.453125 Z M 9.015625 -3.128906 " fill-opacity="1" fill-rule="nonzero"/></g></g></g></g></g></g></g></g><g clip-path="url(#719a63023a)"><g clip-path="url(#a3de9fa9e2)"><g clip-path="url(#278d099b17)"><g transform="matrix(1, 0, 0, 1, 308, 378)"><g clip-path="url(#6786cc89bb)"><g clip-path="url(#0057b32ca6)"><g clip-path="url(#8f86fc9406)"><g clip-path="url(#d0fdb30db1)"><path fill="#002d62" d="M 27.171875 20.148438 L 17.757812 28.417969 L 0.152344 8.378906 L 9.566406 0.109375 Z M 27.171875 20.148438 " fill-opacity="1" fill-rule="nonzero"/></g></g></g></g></g></g></g></g><path stroke-linecap="butt" transform="matrix(-0.448897, 0.600364, -0.600364, -0.448897, 367.881246, 277.9886)" fill="none" stroke-linejoin="miter" d="M 0.905608 1.786215 C 91.431946 47.708487 147.163693 47.704878 168.099795 1.782681 " stroke="#002d62" stroke-width="4" stroke-opacity="1" stroke-miterlimit="4"/><path stroke-linecap="butt" transform="matrix(-0.579745, 0.475226, -0.475226, -0.579745, 368.54455, 293.071415)" fill="none" stroke-linejoin="miter" d="M -0.00159884 4.50149 C 69.919972 4.498232 111.297658 4.497729 124.138793 4.499255 " stroke="#002d62" stroke-width="9" stroke-opacity="1" stroke-miterlimit="4"/><path stroke-linecap="butt" transform="matrix(0.546068, 0.513571, -0.513571, 0.546068, 292.415872, 346.699985)" fill="none" stroke-linejoin="miter" d="M 5.43978 5.734276 C 16.770904 30.043378 61.925533 30.045795 140.896528 5.733938 " stroke="#002d62" stroke-width="12" stroke-opacity="1" stroke-miterlimit="4"/><path stroke-linecap="butt" transform="matrix(0.743668, -0.0943509, 0.0943509, 0.743668, 347.342063, 543.57381)" fill="none" stroke-linejoin="miter" d="M 0.838411 1.814041 C 118.463536 56.158757 196.076657 56.162198 233.684257 1.81468 " stroke="#002d62" stroke-width="4" stroke-opacity="1" stroke-miterlimit="4"/><path stroke-linecap="butt" transform="matrix(0.732228, -0.160584, 0.160584, 0.732228, 334.091626, 550.600899)" fill="none" stroke-linejoin="miter" d="M 1.129093 1.651564 C 103.470717 71.66053 198.184249 71.658493 285.273662 1.651659 " stroke="#002d62" stroke-width="4" stroke-opacity="1" stroke-miterlimit="4"/><g clip-path="url(#4030594cdd)"><g clip-path="url(#582a0bc1b1)"><g transform="matrix(1, 0, 0, 1, 454, 528)"><g clip-path="url(#eb29234028)"><g clip-path="url(#3b1bc2a402)"><g clip-path="url(#a34ba0950b)"><rect x="-632.2" width="1166.4" fill="#002d62" height="1457.999957" y="-750.749993" fill-opacity="1"/></g></g></g></g></g></g><g clip-path="url(#1730748a57)"><g clip-path="url(#cbc8c5405a)"><g transform="matrix(1, 0, 0, 1, 406, 546)"><g clip-path="url(#22dc9b561e)"><g clip-path="url(#2451b52b2b)"><g clip-path="url(#bd6243c009)"><rect x="-584.2" width="1166.4" fill="#002d62" height="1457.999957" y="-768.749993" fill-opacity="1"/></g></g></g></g></g></g><g clip-path="url(#6e3c93b441)"><g clip-path="url(#8477c3021d)"><g transform="matrix(1, 0, 0, 1, 399, 549)"><g clip-path="url(#5792c4a236)"><g clip-path="url(#359176045f)"><g clip-path="url(#738193220d)"><rect x="-577.2" width="1166.4" fill="#002d62" height="1457.999957" y="-771.749993" fill-opacity="1"/></g></g></g></g></g></g><g clip-path="url(#184e9cecf4)"><g clip-path="url(#3d4b51e0f0)"><g transform="matrix(1, 0, 0, 1, 286, 295)"><g clip-path="url(#1103ea653c)"><g clip-path="url(#469dea93a8)"><g clip-path="url(#0baf0f86ae)"><rect x="-464.2" width="1166.4" fill="#002d62" height="1457.999957" y="-517.749993" fill-opacity="1"/></g></g></g></g></g></g><g clip-path="url(#293d548d2f)"><g clip-path="url(#d2b97d2fc2)"><g mask="url(#4678ac9181)"><g transform="matrix(1, 0, 0, 1, 381, 534)"><g clip-path="url(#ad0f2b897a)"><g clip-path="url(#9fca7f42a6)"><g clip-path="url(#b1d2cae666)"><rect x="-559.2" width="1166.4" fill="#002d62" height="1457.999957" y="-756.749993" fill-opacity="1"/></g></g></g></g></g></g></g><g clip-path="url(#23a4af3a8a)"><g clip-path="url(#d9dad0e4dd)"><g transform="matrix(1, 0, 0, 1, 377, 545)"><g clip-path="url(#7037655831)"><g clip-path="url(#167e5c9dd1)"><g clip-path="url(#f7d15f22fb)"><rect x="-555.2" width="1166.4" fill="#002d62" height="1457.999957" y="-767.749993" fill-opacity="1"/></g></g></g></g></g></g><g clip-path="url(#0b2e4327d6)"><g clip-path="url(#c2e6d52853)"><g transform="matrix(1, 0, 0, 1, 378, 554)"><g clip-path="url(#242c1a4935)"><g clip-path="url(#9b1399c00d)"><g clip-path="url(#54f3195b8a)"><rect x="-556.2" width="1166.4" fill="#002d62" height="1457.999957" y="-776.749993" fill-opacity="1"/></g></g></g></g></g></g><g clip-path="url(#d6d5322ef1)"><g clip-path="url(#a9ff4caba8)"><g transform="matrix(1, 0, 0, 1, 371, 548)"><g clip-path="url(#8243c5e2f7)"><g clip-path="url(#63bd13bca7)"><g clip-path="url(#e171fac9dd)"><rect x="-549.2" width="1166.4" fill="#002d62" height="1457.999957" y="-770.749993" fill-opacity="1"/></g></g></g></g></g></g></svg>